<svg xmlns="http://www.w3.org/2000/svg" viewBox="0 0 1000 1000" fill="#30acc1"><path d="M470.35 123.96c-154.8 15.9-282.39 85.45-345.04 187.94-16.09 26.05-26.82 56.52-32.19 90.62-1.15 6.32-1.92 6.9-13.99 11.11-17.43 6.13-29.31 13.79-41.38 27.21-24.32 26.82-35.05 70.12-22.41 88.7 6.32 9.2 17.43 16.09 30.46 18.78 5.94 1.34 10.92 2.49 11.11 2.68.19 0-.77 4.79-2.3 10.54-10.15 38.32-1.34 76.63 25.29 109.78l12.07 14.94v13.99c0 69.35 48.28 138.32 114.95 164.57 32.76 12.84 8.05 11.88 313.24 11.88h275.88l15.9-4.41c74.14-20.12 127.02-81.42 136.22-157.29 1.34-9.96 1.72-20.5 1.15-23.57-1.15-4.6.19-7.09 9.58-17.43 13.22-14.56 24.91-37.55 28.93-56.9 3.83-18.39 2.49-44.06-3.06-61.11l-4.22-12.45 4.6-7.66c4.02-7.09 4.41-10.16 4.22-30.85-.19-36.98-8.82-60.54-29.7-80.85-10.35-10.15-10.92-11.3-12.07-22.41-2.68-27.01-17.43-67.25-34.1-94.07-19.54-30.84-57.09-70.12-89.85-93.3-62.84-44.83-135.07-72.8-223.96-86.79-19.36-3.07-109.79-5.56-129.33-3.65zm124.53 44.64c162.27 24.52 291.21 119.93 310.94 229.52l1.72 10.15h-773.8l1.34-9.2c3.64-24.52 18.01-57.09 36.59-82.96 10.35-14.37 40.42-45.6 55.37-57.48 17.63-13.99 49.62-33.72 74.72-45.79 57.48-27.97 107.48-41.19 182-48.66 19.16-1.9 87.37.78 111.12 4.42zm336.8 285.65c7.47 6.51 14.18 20.31 15.71 32.76.57 4.6 1.53 10.73 1.92 13.6.57 3.06 0 5.36-1.15 5.36-.96 0-10.16-5.36-20.5-11.88-35.25-22.41-54.98-28.35-72.23-21.84-11.11 4.41-19.54 12.84-25.1 25.29-3.63 8.06-5.74 10.35-12.06 13.04-18.01 7.09-46.56 8.24-65.52 2.68-6.13-1.72-7.28-2.87-8.24-9.2-2.49-15.52-18.01-29.89-40.04-36.78-11.69-3.83-18.01-4.41-41.57-4.41-31.61 0-48.28 3.83-62.84 14.37-9.77 6.9-13.79 13.03-16.67 24.52-3.45 13.6-10.54 16.48-41.19 16.67-28.17 0-42.15-3.64-42.15-11.3 0-2.3-2.3-8.81-4.98-14.18-9.39-18.78-30.84-28.74-65.9-30.46-47.51-2.49-86.21 14.18-91.19 39.08-1.53 7.85-3.07 9-17.05 13.22-15.52 4.6-44.83 4.79-56.52.19-8.05-3.06-8.81-3.83-10.92-12.84-5.94-24.71-27.59-36.4-67.63-36.4-44.83 0-82.38 14.18-92.73 34.87-2.88 5.56-12.27 8.82-29.13 9.58l-13.21.58.57-6.71c2.87-27.4 24.91-50.77 50.96-53.64 6.32-.77 194.27-1.53 417.27-1.72l405.58-.19 6.51 5.74zm-493.9 49.81c18.2 2.87 21.46 4.79 22.61 13.41 1.34 9.96 7.86 20.12 17.05 27.01 33.72 24.33 107.09 20.88 133.15-6.32 6.51-6.71 12.07-18.01 12.07-24.33 0-10.16 46.55-14.94 71.46-7.28 9.58 2.87 10.92 4.02 10.92 8.24 0 14.37 16.29 31.04 36.21 37.36 18.2 5.75 48.47 6.9 68.97 2.87 29.89-6.13 47.9-17.63 55.56-35.64 3.83-8.81 4.4-9.39 8.81-7.66 8.04 3.07 22.41 11.11 42.15 23.37 17.24 10.92 19.73 13.22 24.52 22.61 19.54 39.27 1.92 88.7-38.51 107.86l-12.83 6.13H150.41l-12.84-6.32c-16.48-8.05-33.91-26.25-40.04-41.96-3.64-9-4.41-14.75-4.6-31.42 0-19.35.19-20.69 7.09-34.49 4.6-9.2 9-15.33 12.64-17.44 7.09-4.21 17.63-16.09 17.63-19.73 0-9.2 53.64-17.82 75.48-12.26 7.85 1.92 8.43 2.49 9.39 9.77 2.11 16.09 17.43 30.65 39.66 37.55 14.75 4.6 57.48 4.41 74.53-.38 27.01-7.47 42.34-18.78 46.17-34.1 2.11-8.04 3.26-9.39 10.35-12.07 16.66-6.31 33.14-7.84 51.91-4.78zM240.45 752.74c17.82 35.06 19.73 37.93 26.63 41.38l7.66 3.64 124.72-41.38 124.73-41.58h382.59l-1.34 8.62c-3.06 22.42-19.16 51.73-39.47 71.84-15.33 15.14-28.93 24.14-47.9 32-26.25 10.54-19.16 10.34-304.62 9.58-293.7-.57-269.75.57-300.02-13.79-39.85-19.16-70.5-58.82-78.36-101.16l-1.34-7.09h87.55l19.17 37.94zm148.48-36.59c-1.53.77-25.48 8.81-53.26 18.01l-50.2 16.86-8.62-17.05c-4.79-9.39-8.62-17.63-8.62-18.2s27.78-.96 61.88-.76c33.91-.01 60.35.56 58.82 1.14z"/><path d="M472.27 205.19c-2.11.77-10.54 8.43-18.58 16.86-12.07 12.26-14.94 16.48-14.94 21.07 0 13.22 8.43 21.46 22.03 21.46 6.13 0 9-1.72 20.5-13.03 13.99-13.41 18.77-20.31 18.77-27.21 0-7.09-5.75-15.52-12.45-18.39-7.28-3.06-9.78-3.06-15.33-.76zM611.93 227.99c-6.9 4.22-11.11 14.37-9.39 21.84.77 2.68 8.43 11.88 17.24 20.31 13.03 12.84 16.86 15.52 21.84 15.52 13.22 0 21.26-8.43 21.26-22.22 0-5.94-1.92-8.81-12.84-20.31-18.76-19.35-26.23-22.42-38.11-15.14zM288.35 266.5c-2.11.77-10.54 8.43-18.58 16.86-12.07 12.26-14.94 16.48-14.94 21.07 0 13.22 8.43 21.46 22.03 21.46 6.13 0 9-1.72 20.5-13.03 13.99-13.41 18.77-20.31 18.77-27.21 0-7.09-5.75-15.52-12.45-18.39-7.28-3.06-9.78-3.06-15.33-.76zM518.82 319.57c-15.9 15.52-19.54 21.65-18.01 30.84 1.92 12.26 14.18 19.73 25.29 15.71 9.2-3.45 33.14-28.55 34.49-36.21 2.49-12.84-7.09-23.18-21.46-23.18-5.94 0-8.81 1.92-20.31 12.84zM771.91 312.29c-4.6 4.6-5.56 7.28-5.56 14.56 0 8.81.57 9.58 14.94 23.95 16.67 16.86 22.99 19.35 33.72 14.37 8.24-3.83 13.41-13.99 11.69-22.22-1.53-6.51-21.84-29.31-29.89-33.53-9-4.6-18.39-3.45-24.9 2.87z"/></svg>